G04 EAGLE Gerber RS-274X export*
G75*
%MOMM*%
%FSLAX34Y34*%
%LPD*%
%INBottom Copper*%
%IPPOS*%
%AMOC8*
5,1,8,0,0,1.08239X$1,22.5*%
G01*
%ADD10C,0.152400*%
%ADD11C,2.000000*%
%ADD12C,2.200000*%
%ADD13R,3.500000X3.000000*%
%ADD14R,0.500000X3.000000*%
%ADD15C,1.500000*%
%ADD16C,2.400000*%
%ADD17R,3.000000X3.500000*%
%ADD18R,3.000000X0.500000*%
%ADD19C,3.000000*%
%ADD20C,0.600000*%
%ADD21C,1.000000*%
%ADD22C,2.000000*%


D10*
X643391Y54320D02*
X646103Y57032D01*
X651526Y57032D01*
X654238Y54320D01*
X654238Y51609D01*
X651526Y48897D01*
X646103Y48897D01*
X643391Y46185D01*
X643391Y43474D01*
X646103Y40762D01*
X651526Y40762D01*
X654238Y43474D01*
X637866Y40762D02*
X637866Y57032D01*
X629732Y57032D01*
X627020Y54320D01*
X627020Y48897D01*
X629732Y46185D01*
X637866Y46185D01*
X632443Y46185D02*
X627020Y40762D01*
X613360Y57032D02*
X610648Y54320D01*
X613360Y57032D02*
X618783Y57032D01*
X621495Y54320D01*
X621495Y43474D01*
X618783Y40762D01*
X613360Y40762D01*
X610648Y43474D01*
X610648Y48897D01*
X616072Y48897D01*
X605123Y51609D02*
X605123Y40762D01*
X605123Y51609D02*
X599700Y57032D01*
X594277Y51609D01*
X594277Y40762D01*
X594277Y48897D02*
X605123Y48897D01*
X726738Y29532D02*
X726738Y13262D01*
X726738Y29532D02*
X718603Y29532D01*
X715891Y26820D01*
X715891Y24109D01*
X718603Y21397D01*
X715891Y18685D01*
X715891Y15974D01*
X718603Y13262D01*
X726738Y13262D01*
X726738Y21397D02*
X718603Y21397D01*
X704943Y13262D02*
X704943Y29532D01*
X710366Y29532D02*
X699520Y29532D01*
X693995Y29532D02*
X693995Y18685D01*
X688572Y13262D01*
X683148Y18685D01*
X683148Y29532D01*
X674912Y13262D02*
X669488Y13262D01*
X674912Y13262D02*
X677623Y15974D01*
X677623Y21397D01*
X674912Y24109D01*
X669488Y24109D01*
X666777Y21397D01*
X666777Y18685D01*
X677623Y18685D01*
X661252Y13262D02*
X661252Y24109D01*
X661252Y18685D02*
X655828Y24109D01*
X653117Y24109D01*
X647609Y26820D02*
X647609Y15974D01*
X647609Y26820D02*
X644897Y29532D01*
X639474Y29532D01*
X636762Y26820D01*
X636762Y15974D01*
X639474Y13262D01*
X644897Y13262D01*
X647609Y15974D01*
X636762Y26820D01*
X631237Y26820D02*
X631237Y15974D01*
X631237Y26820D02*
X628526Y29532D01*
X623102Y29532D01*
X620391Y26820D01*
X620391Y15974D01*
X623102Y13262D01*
X628526Y13262D01*
X631237Y15974D01*
X620391Y26820D01*
X606731Y29532D02*
X606731Y13262D01*
X614866Y21397D02*
X606731Y29532D01*
X604019Y21397D02*
X614866Y21397D01*
X596738Y24109D02*
X591315Y29532D01*
X591315Y13262D01*
X596738Y13262D02*
X585891Y13262D01*
X580366Y24109D02*
X574943Y29532D01*
X574943Y13262D01*
X580366Y13262D02*
X569520Y13262D01*
X563995Y13262D02*
X553148Y29532D01*
X547623Y13262D02*
X536777Y13262D01*
X547623Y13262D02*
X536777Y24109D01*
X536777Y26820D01*
X539488Y29532D01*
X544912Y29532D01*
X547623Y26820D01*
X531252Y13262D02*
X520405Y13262D01*
X531252Y13262D02*
X520405Y24109D01*
X520405Y26820D01*
X523117Y29532D01*
X528540Y29532D01*
X531252Y26820D01*
D11*
X60000Y360000D03*
X60000Y460000D03*
X97500Y360000D03*
X97500Y460000D03*
X135000Y360000D03*
X135000Y460000D03*
D12*
X177500Y382500D03*
X177500Y472500D03*
X210000Y402500D03*
X210000Y492500D03*
X242500Y422500D03*
X242500Y512500D03*
X647500Y382500D03*
X647500Y472500D03*
X682500Y402500D03*
X682500Y492500D03*
X717500Y422500D03*
X717500Y512500D03*
X610000Y360000D03*
X610000Y460000D03*
X490000Y422500D03*
X490000Y512500D03*
X455000Y402500D03*
X455000Y492500D03*
X420000Y382500D03*
X420000Y472500D03*
X337500Y340000D03*
X337500Y460000D03*
X570000Y340000D03*
X570000Y460000D03*
X377500Y360000D03*
X377500Y460000D03*
X297500Y320000D03*
X297500Y460000D03*
X530000Y320000D03*
X530000Y460000D03*
X60000Y360000D03*
X60000Y460000D03*
X97500Y360000D03*
X97500Y460000D03*
X135000Y360000D03*
X135000Y460000D03*
D13*
X22500Y260000D03*
D14*
X42500Y260000D03*
D12*
X147500Y260000D03*
X237500Y260000D03*
X147500Y220000D03*
X237500Y220000D03*
D13*
X22500Y210000D03*
D14*
X42500Y210000D03*
D13*
X725000Y255000D03*
D14*
X745000Y255000D03*
D13*
X725000Y135000D03*
D14*
X745000Y135000D03*
D12*
X172500Y52500D03*
X172500Y142500D03*
D15*
X335000Y220000D02*
X350000Y220000D01*
X425000Y220000D02*
X440000Y220000D01*
X350000Y195000D02*
X335000Y195000D01*
X335000Y170000D02*
X350000Y170000D01*
X350000Y145000D02*
X335000Y145000D01*
X335000Y245000D02*
X350000Y245000D01*
X350000Y270000D02*
X335000Y270000D01*
X335000Y295000D02*
X350000Y295000D01*
X425000Y245000D02*
X440000Y245000D01*
X440000Y270000D02*
X425000Y270000D01*
X425000Y295000D02*
X440000Y295000D01*
X440000Y195000D02*
X425000Y195000D01*
X425000Y170000D02*
X440000Y170000D01*
X440000Y145000D02*
X425000Y145000D01*
D13*
X22500Y160000D03*
D14*
X42500Y160000D03*
D13*
X725000Y195000D03*
D14*
X745000Y195000D03*
D12*
X100000Y487500D03*
X150000Y487500D03*
X32500Y487500D03*
X82500Y487500D03*
X182500Y502500D03*
X182500Y552500D03*
X215000Y527500D03*
X215000Y577500D03*
D13*
X22500Y95000D03*
D14*
X42500Y95000D03*
D13*
X22500Y20000D03*
D14*
X42500Y20000D03*
D12*
X147500Y185000D03*
X237500Y185000D03*
X147500Y295000D03*
X237500Y295000D03*
X490000Y270000D03*
X490000Y340000D03*
X387500Y110000D03*
X387500Y80000D03*
X112500Y160000D03*
X57500Y160000D03*
X112500Y260000D03*
X57500Y260000D03*
X30000Y42500D03*
X30000Y72500D03*
X292500Y487500D03*
X332500Y487500D03*
X352500Y487500D03*
X392500Y487500D03*
X432500Y512500D03*
X432500Y552500D03*
X467500Y537500D03*
X467500Y577500D03*
D16*
X242500Y120000D03*
X242500Y80000D03*
D12*
X302500Y120000D03*
X302500Y220000D03*
X472500Y120000D03*
X472500Y220000D03*
D17*
X77500Y20000D03*
D18*
X77500Y40000D03*
D17*
X125000Y20000D03*
D18*
X125000Y40000D03*
D17*
X172500Y20000D03*
D18*
X172500Y40000D03*
D17*
X252500Y20000D03*
D18*
X252500Y40000D03*
D17*
X300000Y20000D03*
D18*
X300000Y40000D03*
D17*
X347500Y20000D03*
D18*
X347500Y40000D03*
D17*
X417500Y20000D03*
D18*
X417500Y40000D03*
D17*
X472500Y20000D03*
D18*
X472500Y40000D03*
D19*
X542500Y577500D03*
X592500Y577500D03*
X642500Y577500D03*
X592500Y527500D03*
X642500Y527500D03*
X542500Y527500D03*
X292500Y577500D03*
X342500Y577500D03*
X392500Y577500D03*
X342500Y527500D03*
X392500Y527500D03*
X292500Y527500D03*
X42500Y577500D03*
X92500Y577500D03*
X142500Y577500D03*
X92500Y527500D03*
X142500Y527500D03*
X42500Y527500D03*
D12*
X550000Y135000D03*
X580000Y135000D03*
X695000Y135000D03*
X605000Y135000D03*
X695000Y255000D03*
X605000Y255000D03*
X550000Y255000D03*
X580000Y255000D03*
D20*
X542500Y472500D02*
X542500Y527500D01*
X542500Y472500D02*
X530000Y460000D01*
X42500Y465000D02*
X42500Y487500D01*
X42500Y495000D02*
X42500Y527500D01*
X47500Y460000D02*
X50000Y460000D01*
X47500Y460000D02*
X42500Y465000D01*
D21*
X42500Y495000D02*
X42500Y530000D01*
X42500Y495000D02*
X42500Y487500D01*
X32500Y487500D01*
X42500Y487500D02*
X42500Y467500D01*
X50000Y460000D01*
X60000Y460000D01*
D20*
X490000Y512500D02*
X497500Y520000D01*
X497500Y572500D01*
X492500Y577500D01*
X392500Y577500D01*
X292500Y527500D02*
X292500Y467500D01*
X297500Y460000D01*
X242500Y512500D02*
X242500Y572500D01*
X237500Y577500D01*
X142500Y577500D01*
X92500Y577500D02*
X92500Y572500D01*
X117500Y552500D01*
X210000Y492500D02*
X215000Y500000D01*
X215000Y547500D01*
X210000Y552500D01*
X117500Y552500D01*
X325000Y495000D02*
X325000Y485000D01*
X325000Y495000D02*
X360000Y495000D01*
X360000Y480000D01*
X325000Y480000D01*
X325000Y485000D01*
X355000Y485000D01*
X355000Y490000D01*
X342500Y490000D02*
X327500Y490000D01*
X342500Y490000D02*
X355000Y490000D01*
X342500Y490000D02*
X342500Y530000D01*
X337500Y482500D02*
X337500Y460000D01*
X642500Y577500D02*
X712500Y577500D01*
X717500Y572500D01*
X717500Y512500D01*
X182500Y502500D02*
X182500Y477500D01*
X177500Y472500D01*
X177500Y440000D01*
X172500Y435000D01*
X15000Y435000D02*
X10000Y440000D01*
X15000Y435000D02*
X172500Y435000D01*
X10000Y440000D02*
X10000Y572500D01*
X15000Y577500D01*
X42500Y577500D01*
X342500Y577500D02*
X367500Y552500D01*
X455000Y492500D02*
X467500Y505000D01*
X462500Y552500D02*
X367500Y552500D01*
X462500Y552500D02*
X467500Y547500D01*
X467500Y505000D01*
X292500Y577500D02*
X285000Y577500D01*
X265000Y442500D02*
X270000Y437500D01*
X420000Y500000D02*
X432500Y512500D01*
X265000Y572500D02*
X265000Y442500D01*
X265000Y572500D02*
X270000Y577500D01*
X292500Y577500D01*
X420000Y500000D02*
X420000Y442500D01*
X415000Y437500D01*
X270000Y437500D01*
X570000Y460000D02*
X570000Y465000D01*
X570000Y460000D02*
X570000Y482500D01*
X592500Y505000D01*
X592500Y527500D01*
X592500Y572500D02*
X592500Y577500D01*
X592500Y572500D02*
X617500Y552500D01*
X677500Y552500D01*
X682500Y547500D01*
X682500Y492500D01*
X647500Y472500D02*
X647500Y440000D01*
X645000Y437500D01*
X517500Y437500D01*
X537500Y577500D02*
X542500Y577500D01*
X515000Y480000D02*
X514490Y479824D01*
X513985Y479636D01*
X513485Y479435D01*
X512989Y479222D01*
X512499Y478997D01*
X512015Y478760D01*
X511537Y478511D01*
X511065Y478250D01*
X510599Y477979D01*
X510140Y477695D01*
X509688Y477401D01*
X509244Y477096D01*
X508807Y476780D01*
X508378Y476453D01*
X507957Y476116D01*
X507545Y475769D01*
X507141Y475411D01*
X506746Y475044D01*
X506360Y474668D01*
X505984Y474282D01*
X505617Y473887D01*
X505259Y473483D01*
X504912Y473070D01*
X504575Y472649D01*
X504248Y472220D01*
X503932Y471784D01*
X503627Y471339D01*
X503333Y470887D01*
X503050Y470429D01*
X502778Y469963D01*
X502517Y469491D01*
X502269Y469012D01*
X502032Y468528D01*
X501807Y468038D01*
X501594Y467543D01*
X501393Y467042D01*
X501204Y466537D01*
X501028Y466028D01*
X500865Y465514D01*
X500714Y464996D01*
X500575Y464475D01*
X500450Y463951D01*
X500337Y463423D01*
X500238Y462893D01*
X500151Y462361D01*
X500077Y461827D01*
X500017Y461291D01*
X499969Y460754D01*
X499935Y460216D01*
X499914Y459677D01*
X499906Y459138D01*
X499911Y458599D01*
X499930Y458060D01*
X499962Y457522D01*
X500006Y456985D01*
X500064Y456448D01*
X500135Y455914D01*
X500219Y455381D01*
X500317Y454851D01*
X500427Y454323D01*
X500550Y453798D01*
X500685Y453276D01*
X500834Y452758D01*
X500995Y452243D01*
X501169Y451733D01*
X501355Y451227D01*
X501553Y450726D01*
X501764Y450229D01*
X501986Y449738D01*
X502221Y449253D01*
X502467Y448773D01*
X502726Y448300D01*
X502995Y447833D01*
X503276Y447373D01*
X503568Y446919D01*
X503871Y446473D01*
X504185Y446035D01*
X504510Y445604D01*
X504845Y445182D01*
X505190Y444768D01*
X505545Y444362D01*
X505911Y443965D01*
X506285Y443578D01*
X506669Y443199D01*
X507062Y442830D01*
X507465Y442471D01*
X507875Y442122D01*
X508295Y441783D01*
X508722Y441454D01*
X509157Y441136D01*
X509600Y440828D01*
X510051Y440532D01*
X510508Y440246D01*
X510972Y439972D01*
X511443Y439710D01*
X511920Y439458D01*
X512404Y439219D01*
X512892Y438992D01*
X513387Y438776D01*
X513886Y438573D01*
X514390Y438382D01*
X514899Y438203D01*
X515412Y438037D01*
X515929Y437884D01*
X516449Y437743D01*
X516973Y437615D01*
X517500Y437500D01*
X515000Y480000D02*
X515000Y572500D01*
X520000Y577500D01*
X542500Y577500D01*
X142500Y527500D02*
X142500Y487500D01*
D21*
X142500Y490000D02*
X142500Y527500D01*
X142500Y490000D02*
X150000Y487500D01*
X142500Y487500D01*
X135000Y480000D01*
X135000Y460000D01*
D20*
X642500Y505000D02*
X642500Y527500D01*
X642500Y505000D02*
X610000Y472500D01*
X610000Y460000D01*
X642500Y507500D02*
X642500Y527500D01*
X647500Y382500D02*
X170000Y382500D01*
X97500Y360000D02*
X97500Y345000D01*
X102500Y340000D01*
X570000Y340000D01*
X490000Y270000D02*
X432500Y270000D01*
X92500Y465000D02*
X92500Y527500D01*
D21*
X92500Y530000D02*
X92500Y465000D01*
X97500Y460000D01*
X100000Y487500D02*
X75000Y487500D01*
X75000Y495000D02*
X107500Y495000D01*
X107500Y482500D01*
X75000Y482500D01*
X75000Y495000D01*
D20*
X392500Y475000D02*
X392500Y527500D01*
X392500Y475000D02*
X377500Y460000D01*
X167500Y382500D02*
X37500Y382500D01*
X32500Y377500D01*
X32500Y302500D01*
X37500Y297500D01*
X227500Y145000D02*
X342500Y145000D01*
X147500Y220000D02*
X112500Y220000D01*
X85000Y245000D01*
X85000Y292500D01*
X80000Y297500D01*
X37500Y297500D01*
X192500Y180000D02*
X227500Y145000D01*
X192500Y180000D02*
X192500Y215000D01*
X187500Y220000D01*
X147500Y220000D01*
X112500Y175000D02*
X112500Y160000D01*
X112500Y175000D02*
X122500Y185000D01*
X147500Y185000D01*
X237500Y295000D02*
X342500Y295000D01*
X60000Y325000D02*
X60000Y360000D01*
X60000Y325000D02*
X65000Y320000D01*
X237500Y320000D01*
X530000Y320000D01*
X237500Y320000D02*
X237500Y295000D01*
X147500Y260000D02*
X112500Y260000D01*
X252500Y170000D02*
X342500Y170000D01*
X252500Y170000D02*
X237500Y185000D01*
X237500Y220000D01*
D22*
X57500Y260000D02*
X25000Y260000D01*
X25000Y160000D02*
X57500Y160000D01*
D20*
X247500Y270000D02*
X342500Y270000D01*
X247500Y270000D02*
X237500Y260000D01*
X197500Y260000D01*
X192500Y265000D01*
X192500Y290000D01*
X187500Y295000D01*
X147500Y295000D01*
X432500Y295000D02*
X550000Y295000D01*
X550000Y255000D01*
X610000Y360000D02*
X130000Y360000D01*
X550000Y295000D02*
X605000Y295000D01*
X610000Y300000D01*
X610000Y360000D01*
X432500Y220000D02*
X407500Y220000D01*
X405000Y217500D01*
X405000Y132500D01*
X417500Y120000D01*
X472500Y120000D01*
D22*
X472500Y72500D01*
D20*
X365000Y220000D02*
X340000Y220000D01*
X365000Y220000D02*
X370000Y215000D01*
X370000Y132500D01*
X357500Y120000D01*
X175000Y120000D01*
X172500Y122500D01*
X172500Y142500D01*
D22*
X42500Y20000D02*
X15000Y20000D01*
X42500Y20000D02*
X77500Y20000D01*
X15000Y20000D02*
X15000Y42500D01*
X42500Y42500D01*
X42500Y20000D01*
X125000Y22500D02*
X125000Y87500D01*
X172500Y52500D02*
X172500Y30000D01*
X172500Y22500D02*
X252500Y22500D01*
X300000Y22500D02*
X300000Y75000D01*
X345000Y22500D02*
X417500Y22500D01*
X472500Y22500D02*
X472500Y77500D01*
X17500Y42500D02*
X17500Y20000D01*
X17500Y42500D02*
X35000Y42500D01*
X35000Y27500D01*
D20*
X432500Y195000D02*
X470000Y195000D01*
X472500Y197500D01*
X472500Y242500D01*
X470000Y245000D01*
X387500Y115000D02*
X387500Y112500D01*
D22*
X387500Y115000D02*
X387500Y110000D01*
D20*
X392500Y245000D02*
X432500Y245000D01*
X387500Y242500D02*
X387500Y240000D01*
X392500Y245000D01*
X387500Y240000D02*
X387500Y115000D01*
X390000Y245000D02*
X392500Y245000D01*
X390000Y245000D02*
X387500Y242500D01*
X390000Y245000D02*
X382500Y245000D01*
X387500Y240000D01*
X382500Y245000D02*
X342500Y245000D01*
X305000Y245000D01*
X302500Y242500D01*
X305000Y195000D02*
X342500Y195000D01*
X305000Y195000D02*
X302500Y197500D01*
X302500Y242500D01*
X432500Y245000D02*
X470000Y245000D01*
X682500Y402500D02*
X207500Y402500D01*
X615000Y207500D02*
X637500Y227500D01*
X615000Y207500D02*
X525000Y207500D01*
X515000Y170000D02*
X432500Y170000D01*
X515000Y170000D02*
X520000Y175000D01*
X520000Y202500D01*
X525000Y207500D01*
X637500Y227500D02*
X637500Y340000D01*
X642500Y345000D01*
X677500Y345000D01*
X682500Y350000D01*
X682500Y402500D01*
D22*
X685000Y195000D02*
X730000Y195000D01*
X685000Y195000D02*
X657500Y172500D01*
X30000Y72500D02*
X15000Y72500D01*
X15000Y100000D01*
X25000Y210000D02*
X80000Y210000D01*
X85000Y205000D01*
X85000Y90000D01*
X42500Y90000D02*
X20000Y90000D01*
X42500Y90000D02*
X85000Y90000D01*
X75000Y100000D02*
X20000Y100000D01*
X20000Y90000D01*
X85000Y90000D02*
X232500Y90000D01*
X242500Y80000D01*
X42500Y72500D02*
X30000Y72500D01*
X42500Y72500D02*
X42500Y90000D01*
X657500Y80000D02*
X657500Y172500D01*
X657500Y80000D02*
X242500Y80000D01*
D20*
X550000Y145000D02*
X550000Y150000D01*
X550000Y145000D02*
X550000Y135000D01*
X617500Y185000D02*
X665000Y222500D01*
X717500Y422500D02*
X242500Y422500D01*
X545000Y145000D02*
X550000Y145000D01*
X545000Y145000D02*
X432500Y145000D01*
X545000Y145000D02*
X550000Y150000D01*
X550000Y180000D01*
X555000Y185000D01*
X617500Y185000D01*
X665000Y222500D02*
X665000Y310000D01*
X670000Y315000D01*
X712500Y315000D01*
X717500Y320000D01*
X717500Y422500D01*
D22*
X605000Y255000D02*
X580000Y255000D01*
X580000Y135000D02*
X605000Y135000D01*
D20*
X722500Y255000D02*
X730000Y255000D01*
D22*
X722500Y255000D02*
X695000Y255000D01*
D20*
X722500Y135000D02*
X730000Y135000D01*
D22*
X722500Y135000D02*
X695000Y135000D01*
M02*
