G04 EAGLE Gerber RS-274X export*
G75*
%MOMM*%
%FSLAX34Y34*%
%LPD*%
%INSoldermask Bottom*%
%IPPOS*%
%AMOC8*
5,1,8,0,0,1.08239X$1,22.5*%
G01*
%ADD10C,2.203200*%
%ADD11C,2.403200*%
%ADD12C,1.703200*%
%ADD13C,2.603200*%
%ADD14C,3.203200*%


D10*
X60000Y360000D03*
X60000Y460000D03*
X97500Y360000D03*
X97500Y460000D03*
X135000Y360000D03*
X135000Y460000D03*
D11*
X177500Y382500D03*
X177500Y472500D03*
X210000Y402500D03*
X210000Y492500D03*
X242500Y422500D03*
X242500Y512500D03*
X647500Y382500D03*
X647500Y472500D03*
X682500Y402500D03*
X682500Y492500D03*
X717500Y422500D03*
X717500Y512500D03*
X610000Y360000D03*
X610000Y460000D03*
X490000Y422500D03*
X490000Y512500D03*
X455000Y402500D03*
X455000Y492500D03*
X420000Y382500D03*
X420000Y472500D03*
X337500Y340000D03*
X337500Y460000D03*
X570000Y340000D03*
X570000Y460000D03*
X377500Y360000D03*
X377500Y460000D03*
X297500Y320000D03*
X297500Y460000D03*
X530000Y320000D03*
X530000Y460000D03*
X60000Y360000D03*
X60000Y460000D03*
X97500Y360000D03*
X97500Y460000D03*
X135000Y360000D03*
X135000Y460000D03*
X147500Y260000D03*
X237500Y260000D03*
X147500Y220000D03*
X237500Y220000D03*
X172500Y52500D03*
X172500Y142500D03*
D12*
X335000Y220000D02*
X350000Y220000D01*
X425000Y220000D02*
X440000Y220000D01*
X350000Y195000D02*
X335000Y195000D01*
X335000Y170000D02*
X350000Y170000D01*
X350000Y145000D02*
X335000Y145000D01*
X335000Y245000D02*
X350000Y245000D01*
X350000Y270000D02*
X335000Y270000D01*
X335000Y295000D02*
X350000Y295000D01*
X425000Y245000D02*
X440000Y245000D01*
X440000Y270000D02*
X425000Y270000D01*
X425000Y295000D02*
X440000Y295000D01*
X440000Y195000D02*
X425000Y195000D01*
X425000Y170000D02*
X440000Y170000D01*
X440000Y145000D02*
X425000Y145000D01*
D11*
X100000Y487500D03*
X150000Y487500D03*
X32500Y487500D03*
X82500Y487500D03*
X182500Y502500D03*
X182500Y552500D03*
X215000Y527500D03*
X215000Y577500D03*
X147500Y185000D03*
X237500Y185000D03*
X147500Y295000D03*
X237500Y295000D03*
X490000Y270000D03*
X490000Y340000D03*
X387500Y110000D03*
X387500Y80000D03*
X112500Y160000D03*
X57500Y160000D03*
X112500Y260000D03*
X57500Y260000D03*
X30000Y42500D03*
X30000Y72500D03*
X292500Y487500D03*
X332500Y487500D03*
X352500Y487500D03*
X392500Y487500D03*
X432500Y512500D03*
X432500Y552500D03*
X467500Y537500D03*
X467500Y577500D03*
D13*
X242500Y120000D03*
X242500Y80000D03*
D11*
X302500Y120000D03*
X302500Y220000D03*
X472500Y120000D03*
X472500Y220000D03*
D14*
X542500Y577500D03*
X592500Y577500D03*
X642500Y577500D03*
X592500Y527500D03*
X642500Y527500D03*
X542500Y527500D03*
X292500Y577500D03*
X342500Y577500D03*
X392500Y577500D03*
X342500Y527500D03*
X392500Y527500D03*
X292500Y527500D03*
X42500Y577500D03*
X92500Y577500D03*
X142500Y577500D03*
X92500Y527500D03*
X142500Y527500D03*
X42500Y527500D03*
D11*
X550000Y135000D03*
X580000Y135000D03*
X695000Y135000D03*
X605000Y135000D03*
X695000Y255000D03*
X605000Y255000D03*
X550000Y255000D03*
X580000Y255000D03*
M02*
