M48
;GenerationSoftware,Autodesk,EAGLE,9.6.2*%
;CreationDate,2022-12-02T18:38:57Z*%
FMAT,2
ICI,OFF
METRIC,TZ,000.000
T2C0.800
T1C1.200
%
G90
M71
T1
X39250Y52750
X54250Y57750
X59250Y57750
X64250Y57750
X59250Y52750
X64250Y52750
X54250Y52750
X29250Y57750
X34250Y57750
X39250Y57750
X34250Y52750
X29250Y52750
X4250Y57750
X9250Y57750
X14250Y57750
X9250Y52750
X14250Y52750
X4250Y52750
T2
X61000Y36000
X61000Y46000
X49000Y42250
X49000Y51250
X45500Y40250
X45500Y49250
X42000Y38250
X42000Y47250
X33750Y34000
X33750Y46000
X57000Y34000
X57000Y46000
X37750Y36000
X37750Y46000
X29750Y32000
X29750Y46000
X53000Y32000
X53000Y46000
X6000Y36000
X6000Y46000
X9750Y36000
X9750Y46000
X13500Y36000
X13500Y46000
X14750Y26000
X23750Y26000
X14750Y22000
X23750Y22000
X17250Y5250
X17250Y14250
X34250Y22000
X43250Y22000
X34250Y19500
X34250Y17000
X34250Y14500
X34250Y24500
X34250Y27000
X34250Y29500
X43250Y24500
X43250Y27000
X43250Y29500
X43250Y19500
X43250Y17000
X43250Y14500
X10000Y48750
X15000Y48750
X3250Y48750
X8250Y48750
X18250Y50250
X18250Y55250
X21500Y52750
X21500Y57750
X14750Y18500
X23750Y18500
X14750Y29500
X23750Y29500
X49000Y27000
X49000Y34000
X38750Y11000
X38750Y8000
X11250Y16000
X5750Y16000
X11250Y26000
X5750Y26000
X3000Y4250
X3000Y7250
X29250Y48750
X33250Y48750
X35250Y48750
X39250Y48750
X43250Y51250
X43250Y55250
X46750Y53750
X46750Y57750
X24250Y12000
X6000Y36000
X30250Y12000
X30250Y22000
X47250Y12000
X47250Y22000
X6000Y46000
X9750Y36000
X9750Y46000
X13500Y36000
X13500Y46000
X17750Y38250
X17750Y47250
X21000Y40250
X21000Y49250
X24250Y42250
X24250Y8000
X24250Y51250
X64750Y38250
X64750Y47250
X68250Y40250
X68250Y49250
X71750Y42250
X71750Y51250
X55000Y13500
X58000Y13500
X69500Y13500
X60500Y13500
X69500Y25500
X60500Y25500
X55000Y25500
X58000Y25500
M30